<?xml version="1.0" standalone="no"?>
<!DOCTYPE svg PUBLIC "-//W3C//DTD SVG 20010904//EN"
 "http://www.w3.org/TR/2001/REC-SVG-20010904/DTD/svg10.dtd">
<svg version="1.0" xmlns="http://www.w3.org/2000/svg"
 width="300.000000pt" height="298.000000pt" viewBox="0 0 300.000000 298.000000"
 preserveAspectRatio="xMidYMid meet">
<metadata>
Created by potrace 1.10, written by Peter Selinger 2001-2011
</metadata>
<g transform="translate(0.000000,298.000000) scale(0.100000,-0.100000)"
fill="#000000" stroke="none">
<path d="M2644 2931 c-21 -16 -57 -45 -79 -65 -22 -19 -60 -52 -83 -73 -24
-21 -70 -63 -102 -93 -32 -30 -84 -80 -116 -110 -77 -73 -78 -74 -116 -53 -51
27 -155 52 -245 59 -46 4 -83 11 -83 15 0 5 -49 9 -110 9 -74 0 -110 -4 -110
-11 0 -6 -8 -9 -19 -6 -35 9 -252 -40 -274 -62 -6 -6 -16 -11 -23 -11 -25 0
-168 -73 -231 -117 -33 -24 -53 -29 -53 -14 0 16 -114 128 -137 135 -13 4 -23
12 -23 17 0 19 -139 149 -175 165 -20 8 -38 14 -40 12 -2 -2 27 -28 63 -58 37
-31 92 -88 122 -129 49 -66 55 -71 60 -50 5 21 12 16 62 -51 31 -41 66 -95 78
-120 22 -43 23 -44 33 -22 6 12 13 22 17 22 6 0 80 -151 80 -163 0 -3 7 -22
16 -43 13 -32 17 -35 25 -21 16 28 25 20 44 -40 21 -70 29 -80 49 -64 8 7 20
9 27 5 6 -3 34 -53 60 -109 44 -91 52 -102 72 -98 19 4 24 -2 35 -42 9 -35 16
-45 27 -41 10 3 31 -10 57 -36 l41 -41 -29 -24 c-42 -34 -71 -38 -138 -20 -34
9 -89 25 -123 34 -72 20 -50 28 -265 -100 l-128 -76 -30 43 c-61 90 -102 110
-249 121 -62 5 -88 11 -98 23 -21 26 -49 83 -63 127 -22 69 -81 188 -115 235
-63 86 -315 282 -315 245 0 -8 7 -15 16 -15 8 0 13 -3 11 -7 -3 -5 25 -28 61
-53 36 -25 87 -66 113 -91 26 -26 51 -48 56 -50 11 -5 80 -109 91 -139 6 -14
23 -54 40 -90 16 -36 33 -76 37 -90 4 -14 21 -46 38 -72 24 -37 36 -46 56 -45
20 2 26 -2 24 -18 -1 -11 -5 -48 -9 -83 l-7 -63 62 3 62 3 4 63 c5 70 9 82 32
82 14 0 15 -10 9 -75 l-7 -75 55 0 c57 0 90 19 37 21 -17 1 -36 2 -43 3 -14 1
-30 66 -17 66 5 0 9 9 9 20 0 15 4 18 19 12 11 -4 19 -10 18 -13 -1 -3 15 -23
36 -43 24 -23 36 -43 33 -52 -3 -9 -6 -17 -6 -20 0 -11 -64 -34 -98 -34 l-39
0 -5 -113 c-5 -112 -3 -122 36 -212 8 -16 21 -55 31 -85 27 -85 121 -272 162
-319 25 -30 33 -45 25 -53 -50 -50 -214 254 -272 502 l-8 35 -1 -30 c0 -17 6
-55 14 -85 9 -30 18 -64 20 -75 2 -11 15 -46 29 -78 17 -37 23 -64 18 -73 -6
-11 -15 -3 -36 36 -15 27 -24 50 -20 50 3 0 1 7 -6 15 -24 29 -70 130 -76 168
-4 20 -9 37 -13 37 -3 0 -7 10 -7 23 -1 12 -9 62 -18 111 -10 49 -15 95 -12
102 3 8 20 14 39 14 33 0 34 -2 41 -46 3 -26 6 -60 6 -76 0 -17 4 -27 10 -23
5 3 8 16 6 28 -3 12 -5 50 -5 85 l-1 62 -60 0 -60 0 0 -30 c0 -62 32 -226 60
-307 35 -101 99 -230 147 -295 35 -49 57 -63 47 -30 -3 9 6 -1 20 -23 14 -21
23 -41 21 -43 -8 -8 -56 9 -51 17 3 5 -7 11 -23 14 -49 10 -142 161 -194 317
-56 168 -62 205 -62 392 0 172 -8 228 -18 131 -11 -107 1 -306 22 -377 11 -38
19 -72 17 -74 -4 -4 15 -67 33 -107 5 -11 21 -48 35 -83 14 -34 48 -96 75
-137 53 -80 53 -87 0 -115 -19 -10 -26 -30 -11 -30 4 0 21 13 39 30 31 29 33
29 71 16 22 -8 68 -28 102 -45 70 -35 96 -38 121 -15 9 8 26 17 36 18 10 2 19
13 21 27 4 28 39 69 59 69 7 0 13 7 13 15 0 24 23 65 36 65 12 0 37 23 87 81
17 19 20 19 40 5 31 -23 47 -29 54 -23 9 10 -2 26 -94 141 l-88 110 -95 23
c-52 13 -122 26 -155 29 -52 5 -64 3 -94 -18 -19 -12 -37 -30 -39 -38 -4 -13
-2 -13 14 1 43 36 113 48 138 24 9 -9 14 -20 11 -24 -5 -10 18 -144 39 -218
18 -67 59 -173 67 -173 3 0 1 -16 -5 -35 -6 -19 -16 -35 -22 -35 -6 0 -17 -7
-24 -15 -11 -13 -14 -13 -25 2 -7 10 -11 21 -9 25 2 4 -4 13 -13 20 -10 7 -29
33 -41 58 -82 155 -110 217 -117 255 -7 35 -13 48 -50 129 -27 57 -27 60 -14
130 11 60 18 76 48 103 19 18 51 41 70 51 49 24 312 182 332 199 26 22 98 12
218 -31 114 -42 185 2 261 160 48 100 58 168 40 266 l-14 71 49 41 c26 22 83
71 126 109 43 37 82 67 87 67 4 0 18 10 29 23 12 12 37 36 58 52 20 17 84 77
143 135 112 110 268 253 362 335 30 26 75 65 99 86 24 22 48 39 54 39 43 0
-113 -341 -196 -427 -42 -44 -18 -44 83 2 43 19 82 35 88 35 26 0 199 82 185
87 -20 7 -122 -17 -137 -33 -8 -8 -21 -14 -30 -14 -8 0 -27 -5 -43 -11 -15 -7
-36 -13 -45 -14 -14 -1 -15 2 -5 19 6 12 10 24 10 27 -1 4 7 15 17 24 11 10
20 22 20 26 0 4 5 20 12 36 6 15 12 30 12 33 1 3 9 16 18 30 23 33 42 124 33
158 -12 50 -37 53 -91 13z m-718 -366 c118 -20 234 -56 234 -73 0 -20 -30 -27
-54 -12 -21 13 -21 13 -2 -9 14 -15 16 -25 9 -32 -7 -7 -28 -1 -69 22 l-59 32
45 -40 c39 -35 43 -42 31 -57 -12 -14 -19 -11 -71 37 -60 55 -120 94 -120 79
0 -5 9 -30 20 -54 11 -25 26 -72 34 -106 13 -56 13 -62 -3 -76 -25 -23 -28
-21 -35 32 -15 113 -76 245 -105 227 -13 -7 -57 -126 -80 -215 -43 -168 -91
-492 -91 -623 0 -46 -1 -47 -21 -36 -21 11 -21 16 -15 113 14 212 75 538 125
674 24 66 28 82 16 82 -44 0 -165 -112 -228 -211 -42 -67 -101 -204 -121 -283
-19 -72 -22 -76 -37 -42 -10 22 -8 38 12 101 13 41 27 75 31 75 4 0 8 7 8 15
0 39 94 194 166 274 l48 54 -34 -18 c-108 -55 -262 -198 -318 -295 -42 -74
-72 -94 -72 -49 0 45 181 256 273 317 20 14 35 27 33 29 -10 10 -199 -93 -279
-152 -80 -59 -87 -63 -97 -46 -8 16 -3 24 33 50 23 17 47 34 52 38 6 5 31 22
56 38 82 53 85 55 44 39 -57 -22 -166 -82 -193 -107 -21 -20 -23 -20 -39 -4
-11 11 -14 20 -8 26 14 14 114 70 155 87 19 8 43 19 53 24 26 15 165 58 238
74 88 19 325 20 435 1z m-112 -117 c8 -13 24 -59 36 -102 12 -44 24 -84 27
-89 5 -8 -81 -97 -94 -97 -3 0 -21 -16 -40 -35 -19 -19 -39 -35 -44 -35 -15 0
-2 105 25 202 13 48 21 89 18 92 -3 3 0 6 7 6 7 0 11 9 9 20 -3 19 20 60 34
60 4 0 14 -10 22 -22z m-163 -67 c-9 -17 -34 -121 -46 -196 -2 -11 -8 -41 -14
-66 -6 -26 -15 -86 -21 -135 -11 -85 -13 -113 -18 -194 -3 -47 -13 -60 -40
-53 -12 3 -19 10 -15 16 3 5 -12 26 -35 46 -52 47 -105 146 -91 172 5 11 7 19
4 19 -3 0 1 13 9 28 8 15 25 59 37 97 25 78 66 166 83 177 6 4 8 8 3 8 -9 0
34 51 98 115 l50 50 3 -32 c2 -18 -2 -41 -7 -52z m362 -5 c3 3 8 -1 13 -8 4
-7 4 -10 -1 -6 -5 5 -14 -1 -22 -11 -7 -11 -22 -19 -33 -18 -10 1 -18 3 -16 5
2 2 0 19 -5 38 -14 49 -2 59 30 25 16 -17 31 -28 34 -25z m-587 -28 c-9 -12
-16 -30 -16 -40 0 -10 -4 -18 -9 -18 -5 0 -19 -26 -31 -57 -12 -32 -28 -70
-36 -85 -8 -14 -14 -32 -14 -40 0 -8 -8 -31 -18 -52 -16 -32 -20 -35 -31 -22
-40 48 -57 116 -30 116 5 0 9 6 9 13 0 15 29 50 117 144 66 70 91 88 59 41z
m-173 -18 c-3 -11 -9 -20 -14 -20 -5 0 -9 -6 -9 -12 -1 -7 -16 -31 -35 -53
-36 -42 -51 -41 -60 3 -3 15 3 26 18 34 12 6 28 17 35 25 7 7 19 13 26 13 8 0
19 7 26 15 17 20 19 19 13 -5z m437 -302 c0 -29 2 -78 5 -108 6 -62 -15 -157
-34 -152 -8 2 -10 -4 -6 -17 3 -11 1 -23 -6 -27 -13 -8 -5 134 12 216 6 25 13
66 16 93 7 62 14 60 13 -5z m-1016 -458 c12 0 12 -30 0 -88 -5 -26 -41 -44
-65 -31 -14 7 -17 50 -7 101 4 16 29 28 46 22 8 -2 19 -4 26 -4z m342 -461 c3
-6 9 -28 11 -48 8 -59 51 -226 73 -276 24 -56 25 -71 5 -79 -33 -12 -85 145
-124 372 -7 36 -5 42 10 42 10 0 21 -5 25 -11z m136 -32 c9 -1 16 -4 14 -7 -4
-9 53 -58 60 -51 4 3 4 1 1 -5 -3 -6 7 -24 23 -39 17 -16 30 -37 30 -48 0 -25
-66 -104 -102 -123 -15 -8 -28 -22 -29 -32 0 -10 -3 -12 -6 -4 -2 6 -8 10 -13
7 -4 -3 -12 12 -18 33 -6 20 -22 79 -36 130 -14 51 -26 107 -26 124 0 30 0 31
43 23 23 -4 50 -8 59 -8z"/>
<path d="M305 2851 c6 -4 32 -17 59 -27 59 -21 194 -119 219 -157 20 -32 37
-35 37 -8 0 27 -10 51 -22 51 -6 0 -24 11 -42 25 -45 36 -46 37 -104 74 -30
19 -60 34 -68 34 -8 0 -14 3 -14 6 0 3 -17 7 -37 9 -22 1 -33 -1 -28 -7z"/>
<path d="M286 2793 c21 -33 24 -37 65 -85 17 -21 28 -38 23 -38 -4 0 0 -8 8
-17 16 -19 33 -63 24 -63 -3 0 -22 16 -43 36 -74 69 -118 94 -165 93 l-43 0
52 -20 c35 -14 83 -49 152 -111 56 -50 101 -94 101 -97 1 -3 17 -24 36 -46 32
-37 35 -38 32 -15 -2 14 -5 27 -9 30 -3 3 -21 39 -41 81 -45 96 -92 170 -148
232 -46 51 -73 63 -44 20z"/>
<path d="M147 2638 c9 -24 23 -49 30 -56 29 -30 10 -45 -39 -30 -25 7 -41 7
-54 0 -17 -11 -17 -11 6 -12 31 -1 98 -31 157 -70 46 -31 78 -37 52 -10 -14
15 -76 104 -126 179 -35 53 -47 52 -26 -1z"/>
<path d="M2854 2561 c-46 -64 -170 -169 -248 -208 -94 -48 -14 -43 231 12 29
7 31 5 26 -14 -7 -26 -130 -143 -202 -191 -28 -19 -51 -38 -51 -42 0 -9 52 -5
159 12 41 7 77 8 82 3 5 -5 -13 -31 -40 -59 -51 -53 -154 -113 -231 -134 -51
-14 -64 -8 109 -59 57 -17 110 -31 117 -31 17 0 18 -14 2 -27 -17 -13 -118
-40 -234 -63 -53 -10 -98 -20 -100 -23 -11 -11 -137 -257 -159 -309 l-23 -57
53 -56 c31 -34 58 -54 64 -50 8 4 3 13 -14 27 -14 10 -25 28 -25 38 0 17 5 19
33 13 17 -3 34 -7 36 -9 9 -8 -19 -216 -31 -233 -10 -14 -29 -18 -85 -20 -42
-1 -74 2 -78 8 -3 6 -1 11 6 11 7 0 10 11 7 29 -2 17 -1 28 2 26 9 -5 50 32
50 45 0 6 11 10 25 10 25 0 75 19 75 29 0 3 -32 6 -71 6 -57 0 -69 -3 -66 -15
13 -44 12 -45 -23 -46 -19 -1 -39 -2 -44 -3 -4 0 3 -16 17 -35 l26 -34 -29
-12 c-36 -15 -38 -25 -7 -43 21 -14 48 -13 297 6 23 2 25 -2 28 -42 2 -24 10
-50 18 -58 8 -8 14 -34 14 -62 0 -26 5 -52 11 -58 8 -8 8 -25 1 -58 -5 -25 -8
-54 -5 -65 5 -21 -83 -245 -106 -270 -9 -10 -29 -34 -45 -54 -21 -29 -33 -36
-50 -32 -12 3 -37 -5 -61 -19 -36 -23 -41 -23 -57 -8 -17 15 -24 13 -98 -22
-59 -27 -88 -35 -108 -31 -35 9 -43 9 -69 1 -19 -6 -22 -2 -28 42 -9 68 -30
117 -50 122 -16 3 -17 -2 -10 -30 11 -47 12 -103 1 -109 -5 -3 -16 15 -25 40
l-16 45 -3 -51 c-3 -47 -5 -51 -24 -46 -19 5 -21 2 -15 -33 3 -20 9 -40 12
-43 6 -6 21 12 28 33 2 6 39 8 93 6 126 -6 175 -5 183 5 11 16 75 38 116 39
54 2 105 15 105 26 0 5 10 9 23 9 46 0 107 56 148 137 13 27 30 52 37 56 32
20 110 104 116 123 4 12 16 24 27 27 12 3 18 10 15 15 -3 6 -3 12 2 14 12 5
71 105 78 133 3 14 10 25 14 25 4 0 10 8 13 18 3 9 20 55 37 102 42 112 48
136 55 195 15 127 19 214 13 265 -3 30 -9 84 -12 120 -9 108 -21 152 -55 223
-28 57 -40 72 -76 89 -48 23 -82 77 -62 97 18 18 24 13 53 -39 38 -69 65 -63
29 6 -21 41 -19 60 13 84 15 12 34 37 44 56 15 32 15 35 -2 56 -10 12 -26 23
-36 24 -64 3 -74 5 -74 12 0 5 17 21 37 35 21 15 34 27 30 27 -4 0 7 13 23 28
16 16 27 31 25 34 -3 3 1 11 9 17 12 10 13 19 5 39 -14 37 -23 40 -81 31 -29
-5 -54 -7 -56 -4 -2 2 30 38 72 80 72 72 92 105 84 138 -2 10 -19 -6 -44 -42z
m4 -838 c34 -128 42 -190 42 -327 0 -160 -11 -231 -56 -365 -55 -166 -128
-292 -252 -439 -25 -29 -47 -51 -49 -48 -10 9 34 95 72 141 51 61 135 208 169
295 36 95 66 223 73 318 l6 82 -50 0 -50 0 -7 -76 c-9 -100 -61 -302 -98 -386
-32 -70 -37 -75 -55 -57 -8 8 -5 25 13 63 33 73 74 217 90 321 23 148 31 135
-91 135 l-105 0 0 -70 c0 -83 -28 -220 -47 -227 -7 -3 -20 -2 -29 1 -13 5 -14
9 -4 21 15 18 39 154 40 223 l0 52 -75 0 c-73 0 -75 1 -65 20 9 17 21 20 80
20 l70 0 0 43 c0 23 -5 80 -10 125 -11 86 -4 122 25 122 12 0 15 -19 17 -92 1
-51 3 -115 4 -143 l1 -50 98 -3 c59 -2 101 1 105 7 9 15 -8 185 -25 258 -18
76 -19 70 5 76 16 4 21 -1 26 -21 3 -15 10 -43 15 -62 4 -19 11 -86 15 -147
l7 -113 48 0 c26 0 50 3 52 8 8 13 -14 162 -34 236 -33 118 -33 118 -18 127
24 15 26 11 47 -68z m-189 -47 c6 -28 13 -84 17 -123 8 -92 0 -103 -72 -103
-73 0 -71 -6 -78 219 l-1 45 45 11 c66 17 77 11 89 -49z m139 -49 c23 -84 29
-162 13 -171 -18 -12 -29 22 -35 109 -4 50 -9 102 -12 118 -3 15 -2 27 3 27 4
0 18 -37 31 -83z m-361 -95 c5 -65 -3 -77 -54 -85 -31 -5 -31 -5 -21 27 6 17
22 47 35 66 12 19 23 41 23 49 0 8 3 11 7 8 3 -4 8 -33 10 -65z m217 -188 c32
-12 15 -158 -36 -311 -11 -35 -24 -63 -28 -63 -4 0 -18 25 -30 55 -12 30 -26
55 -31 55 -17 0 -26 43 -18 80 5 19 12 64 15 100 3 36 11 71 16 78 11 12 84
17 112 6z m162 -71 c-7 -69 -54 -264 -65 -273 -4 -3 -13 -24 -21 -47 -7 -24
-17 -43 -22 -43 -5 0 -7 -4 -3 -9 3 -5 -2 -16 -10 -24 -8 -9 -15 -20 -15 -25
0 -6 -15 -34 -34 -62 -29 -44 -35 -49 -40 -32 -8 23 8 69 33 97 10 11 26 36
35 55 38 76 96 298 96 363 0 44 13 67 38 67 12 0 14 -12 8 -67z"/>
<path d="M60 2492 c0 -9 9 -19 102 -120 32 -34 58 -67 58 -73 0 -7 -22 -8 -64
-4 -40 5 -71 3 -82 -4 -16 -9 -14 -10 16 -11 45 0 153 -26 189 -45 16 -8 31
-12 34 -8 7 6 -60 85 -167 200 -64 68 -86 85 -86 65z"/>
<path d="M2001 1416 l-22 -23 32 -27 c17 -15 45 -34 61 -42 35 -18 225 -57
239 -48 5 3 -8 23 -28 45 -29 31 -54 44 -108 60 -38 12 -84 30 -101 40 -40 24
-46 24 -73 -5z m127 -55 c29 -12 62 -21 72 -21 11 0 20 -7 20 -15 0 -19 5 -19
-75 6 -37 11 -77 29 -88 40 -19 18 -19 18 -1 15 10 -2 43 -14 72 -25z"/>
<path d="M1600 1412 c0 -4 18 -26 41 -49 22 -23 38 -47 34 -53 -11 -18 -48 0
-91 46 -27 29 -50 44 -65 43 -23 0 -23 -1 -5 -12 10 -7 34 -29 54 -50 19 -20
52 -42 73 -48 28 -9 47 -26 78 -69 26 -37 36 -60 29 -62 -8 -3 2 -21 25 -49
42 -49 166 -159 180 -159 12 0 -1 70 -16 88 -6 7 -22 19 -37 27 -45 23 -129
117 -194 218 l-18 27 55 0 c53 0 56 -2 76 -36 20 -33 20 -38 6 -54 -14 -16
-13 -20 23 -52 64 -58 218 -155 229 -144 11 11 -45 87 -77 105 -58 33 -119 90
-161 153 l-41 60 -50 -7 c-49 -7 -50 -7 -90 39 -38 43 -58 56 -58 38z"/>
<path d="M1147 1391 c-37 -18 -40 -31 -6 -31 12 0 16 -5 13 -14 -3 -9 3 -17
15 -21 25 -8 27 -23 6 -32 -14 -5 -14 -7 0 -23 15 -17 15 -19 -2 -29 -16 -9
-16 -12 -3 -21 13 -9 12 -12 -5 -26 -12 -9 -16 -18 -10 -22 6 -4 10 -13 10
-21 0 -18 42 -22 49 -5 3 8 1 16 -4 19 -17 10 -11 25 9 25 16 0 19 6 18 36 -2
19 -9 39 -17 44 -13 8 -13 10 1 10 30 0 40 24 18 43 -11 10 -17 22 -13 28 3 6
-4 13 -15 16 -16 4 -20 11 -16 24 8 23 1 23 -48 0z"/>
<path d="M1709 1391 c17 -15 37 -21 75 -21 47 0 53 -3 74 -33 12 -18 22 -40
22 -49 0 -19 97 -104 161 -142 51 -29 149 -47 149 -27 0 30 -33 60 -72 66 -94
16 -196 83 -244 160 -24 37 -33 45 -52 42 -22 -4 -54 1 -112 17 l-25 7 24 -20z"/>
<path d="M1913 1364 c-9 -23 50 -78 121 -112 64 -32 188 -53 200 -34 10 16
-15 28 -91 45 -84 19 -134 43 -181 86 -38 36 -41 36 -49 15z"/>
<path d="M1033 1343 c-7 -3 -13 -11 -13 -18 0 -20 -37 -37 -62 -29 -14 4 -18
2 -14 -5 9 -14 56 -14 90 -1 37 14 35 66 -1 53z"/>
<path d="M1434 1285 c24 -18 49 -20 44 -2 -3 6 -18 13 -34 15 -28 2 -28 2 -10
-13z"/>
<path d="M895 1258 c3 -13 9 -33 12 -45 4 -16 17 -24 54 -33 68 -17 83 -2 57
54 -9 20 -16 24 -35 20 -14 -4 -33 0 -48 10 -35 23 -49 21 -40 -6z m105 -49
c0 -10 -7 -11 -37 -3 -13 4 -23 12 -23 20 0 10 6 11 30 3 17 -6 30 -15 30 -20z"/>
<path d="M817 1244 c-32 -18 -50 -55 -41 -89 l6 -24 32 24 c18 14 40 25 49 25
20 0 21 6 6 49 -12 35 -14 36 -52 15z m24 -47 c-14 -14 -41 -18 -41 -7 0 12
33 30 43 23 5 -3 4 -10 -2 -16z"/>
<path d="M1379 1176 c16 -19 44 -21 39 -3 -3 6 -15 14 -28 15 -21 3 -22 2 -11
-12z"/>
<path d="M1346 1126 c6 -16 34 -30 42 -21 8 7 -19 35 -34 35 -7 0 -11 -6 -8
-14z"/>
<path d="M1690 1110 c0 -22 19 -55 68 -120 37 -49 73 -89 80 -89 7 -1 12 11
12 29 0 22 -19 52 -76 120 -41 49 -77 90 -80 90 -2 0 -4 -14 -4 -30z"/>
<path d="M1300 1092 c0 -13 39 -46 46 -39 3 3 3 10 -1 16 -9 15 -45 33 -45 23z"/>
<path d="M672 551 c-8 -4 -19 -20 -27 -34 -11 -22 -11 -25 1 -20 8 3 14 9 14
13 0 5 7 16 16 25 18 18 15 28 -4 16z"/>
<path d="M1430 509 c0 -5 5 -30 11 -55 9 -34 14 -42 24 -34 9 8 17 6 29 -5 21
-21 20 -26 -10 -54 -20 -19 -29 -22 -42 -14 -29 17 -21 38 13 35 22 -2 26 0
15 7 -8 5 -17 8 -21 5 -4 -2 -9 0 -11 4 -5 15 -88 63 -88 52 0 -6 7 -27 15
-47 8 -20 13 -38 10 -41 -3 -3 -21 2 -40 11 -47 23 -48 22 -30 -20 8 -20 13
-38 11 -40 -2 -3 -23 9 -47 26 -23 17 -44 29 -46 27 -2 -2 0 -19 6 -37 5 -19
10 -28 10 -21 1 14 37 16 46 2 3 -5 28 -9 54 -8 41 2 46 4 35 16 -16 15 -18
32 -5 32 4 0 23 -5 41 -12 29 -10 31 -12 15 -18 -19 -6 -18 -8 3 -19 28 -15
110 -19 135 -7 15 7 17 3 17 -33 0 -39 -2 -41 -29 -41 -16 0 -73 11 -127 25
-136 35 -138 35 -128 26 17 -16 204 -71 239 -71 24 0 38 -5 42 -16 11 -30 32
26 32 86 1 80 -6 86 -66 55 -31 -17 -61 -25 -79 -23 -26 4 -27 5 -9 13 32 14
85 59 85 72 0 7 -14 29 -32 48 -31 37 -31 45 6 58 5 2 6 9 2 15 -9 15 -86 16
-86 1z"/>
<path d="M693 479 c-35 -22 -45 -36 -15 -21 42 22 101 22 157 1 64 -24 135
-86 135 -117 0 -12 5 -22 10 -22 18 0 11 56 -10 83 -11 14 -53 42 -92 61 -83
42 -136 46 -185 15z"/>
<path d="M1048 374 c3 -26 -2 -44 -17 -65 -29 -40 -13 -37 21 3 17 20 31 29
35 23 5 -5 16 -16 26 -24 16 -12 17 -12 10 5 -8 23 -64 94 -73 94 -3 0 -4 -16
-2 -36z"/>
<path d="M1150 343 c0 -23 6 -31 30 -40 l30 -11 -17 30 c-29 48 -43 55 -43 21z"/>
<path d="M1756 248 c-3 -13 -6 -32 -6 -43 0 -15 2 -17 9 -6 5 7 14 10 20 7 12
-8 15 22 5 48 -9 23 -21 20 -28 -6z"/>
<path d="M1659 213 c-50 -68 -55 -81 -23 -53 16 14 36 33 45 43 15 16 17 16
23 1 4 -9 9 -15 11 -12 7 7 -6 68 -15 68 -3 0 -22 -21 -41 -47z"/>
<path d="M1890 217 l-45 -11 35 -4 c20 -1 51 4 70 12 31 13 32 15 10 15 -14
-1 -45 -6 -70 -12z"/>
</g>
</svg>
